<!DOCTYPE svg PUBLIC "-//W3C//DTD SVG 1.1//EN" "http://www.w3.org/Graphics/SVG/1.1/DTD/svg11.dtd">
<!-- Uploaded to: SVG Repo, www.svgrepo.com, Transformed by: SVG Repo Mixer Tools -->
<svg width="256px" height="256px" viewBox="0 0 48.00 48.00" xmlns="http://www.w3.org/2000/svg" fill="#f5a97f" stroke="#f5a97f" stroke-width="3.6">
<g id="SVGRepo_bgCarrier" stroke-width="0"/>
<g id="SVGRepo_tracerCarrier" stroke-linecap="round" stroke-linejoin="round" stroke="#CCCCCC" stroke-width="0.4800000000000001"/>
<g id="SVGRepo_iconCarrier">
<defs>
<style>.a,.b{fill:none;stroke:#f5a97f;stroke-linecap:round;stroke-linejoin:round;}.b{fill-rule:evenodd;}</style>
</defs>
<path class="a" d="M4.5,36.1034V11.8966A4.0345,4.0345,0,0,1,8.5345,7.8621h7.5662a3.5863,3.5863,0,0,1,2.1224.6954l2.5323,1.8592a3.5867,3.5867,0,0,0,2.1223.6954H39.4655A4.0345,4.0345,0,0,1,43.5,15.1466V36.1034a4.0345,4.0345,0,0,1-4.0345,4.0345H8.5345A4.0345,4.0345,0,0,1,4.5,36.1034Z"/>
<path class="a" d="M4.5,36.1034V11.8966A4.0345,4.0345,0,0,1,8.5345,7.8621h7.5662a3.5863,3.5863,0,0,1,2.1224.6954l2.5323,1.8592a3.5867,3.5867,0,0,0,2.1223.6954H39.4655A4.0345,4.0345,0,0,1,43.5,15.1466V36.1034a4.0345,4.0345,0,0,1-4.0345,4.0345H8.5345A4.0345,4.0345,0,0,1,4.5,36.1034Z"/>
<path class="b" d="M35.2069,40.1379V19.0871a3.138,3.138,0,0,0-3.156-3.1379l-15.2761.088a3.1382,3.1382,0,0,1-1.8366-.58l-3.4018-2.4192a3.1381,3.1381,0,0,0-1.8186-.5807H4.5"/>
</g>
</svg>